<svg xmlns="http://www.w3.org/2000/svg" width="1340" height="880" viewBox="0 0 1340 880"><defs><marker id="ad" viewBox="0 0 10 10" refX="8" refY="5" markerWidth="7" markerHeight="7" orient="auto-start-reverse"><path d="M0,0 L10,5 L0,10 z" fill="#334155"/></marker><marker id="ag" viewBox="0 0 10 10" refX="8" refY="5" markerWidth="7" markerHeight="7" orient="auto-start-reverse"><path d="M0,0 L10,5 L0,10 z" fill="#10b981"/></marker><marker id="ap" viewBox="0 0 10 10" refX="8" refY="5" markerWidth="7" markerHeight="7" orient="auto-start-reverse"><path d="M0,0 L10,5 L0,10 z" fill="#7c3aed"/></marker><marker id="ab" viewBox="0 0 10 10" refX="8" refY="5" markerWidth="7" markerHeight="7" orient="auto-start-reverse"><path d="M0,0 L10,5 L0,10 z" fill="#3b82f6"/></marker></defs><rect x="0" y="0" width="1340" height="880" fill="#ffffff"/><rect x="20" y="20" width="1300" height="840" rx="22" fill="#fbfcfe" stroke="#eef1f6" stroke-width="1.5"/><text x="52" y="66" font-size="26" fill="#0f172a" font-weight="800" text-anchor="start" letter-spacing="-0.5" font-family="Inter, 'SF Pro Display', system-ui, sans-serif">ScamShield AI</text><text x="52" y="92" font-size="13.5" fill="#64748b" font-weight="400" text-anchor="start" letter-spacing="0" font-family="Inter, 'SF Pro Display', system-ui, sans-serif">High-Level Design — request flow from “Can I trust this?” to a verdict</text><text x="1288" y="66" font-size="12.5" fill="#7c3aed" font-weight="700" text-anchor="end" letter-spacing="0" font-family="Inter, 'SF Pro Display', system-ui, sans-serif">synchronous verdict &lt; 2s</text><text x="1288" y="88" font-size="11.5" fill="#64748b" font-weight="400" text-anchor="end" letter-spacing="0" font-family="Inter, 'SF Pro Display', system-ui, sans-serif">heavy OCR / LLM offloaded async</text><line x1="196.0" y1="430.0" x2="382.0" y2="430.0" stroke="#334155" stroke-width="2.4" marker-end="url(#ad)"/><rect x="217.3" y="418.0" width="143.39999999999998" height="22" rx="11" fill="#ffffff" stroke="#e3e7ee" stroke-width="1"/><text x="289.0" y="433.5" font-size="11" fill="#475569" font-weight="600" text-anchor="middle" letter-spacing="0" font-family="Inter, 'SF Pro Display', system-ui, sans-serif">POST /api/v1/detect</text><circle cx="212.0" cy="430.0" r="10" fill="#334155"/><text x="212.0" y="434.0" font-size="11" fill="#fff" font-weight="700" text-anchor="middle" letter-spacing="0" font-family="Inter, 'SF Pro Display', system-ui, sans-serif">1</text><line x1="481.14365078599616" y1="409.42817460700195" x2="668.1232229220049" y2="315.9383885389976" stroke="#334155" stroke-width="2.4" marker-end="url(#ad)"/><rect x="529.3334368540005" y="350.68328157299976" width="90.6" height="22" rx="11" fill="#ffffff" stroke="#e3e7ee" stroke-width="1"/><text x="574.6334368540005" y="366.18328157299976" font-size="11" fill="#475569" font-weight="600" text-anchor="middle" letter-spacing="0" font-family="Inter, 'SF Pro Display', system-ui, sans-serif">check cache</text><circle cx="495.4544858419948" cy="402.27275707900264" r="10" fill="#334155"/><text x="495.4544858419948" y="406.27275707900264" font-size="11" fill="#fff" font-weight="700" text-anchor="middle" letter-spacing="0" font-family="Inter, 'SF Pro Display', system-ui, sans-serif">2</text><line x1="668.1232229220049" y1="315.9383885389976" x2="481.14365078599616" y2="409.42817460700195" stroke="#10b981" stroke-width="2.4" stroke-dasharray="7 5" marker-end="url(#ag)"/><rect x="502.9334368540005" y="376.68328157299976" width="143.39999999999998" height="22" rx="11" fill="#ffffff" stroke="#e3e7ee" stroke-width="1"/><text x="574.6334368540005" y="392.18328157299976" font-size="11" fill="#475569" font-weight="600" text-anchor="middle" letter-spacing="0" font-family="Inter, 'SF Pro Display', system-ui, sans-serif">cache hit → verdict</text><line x1="481.97542892768774" y1="448.8165715882738" x2="677.0744591781328" y2="536.2747575626113" stroke="#334155" stroke-width="2.4" marker-end="url(#ad)"/><rect x="504.5249440529103" y="480.5456645754425" width="150.0" height="22" rx="11" fill="#ffffff" stroke="#e3e7ee" stroke-width="1"/><text x="579.5249440529103" y="496.0456645754425" font-size="11" fill="#475569" font-weight="600" text-anchor="middle" letter-spacing="0" font-family="Inter, 'SF Pro Display', system-ui, sans-serif">cache miss → analyze</text><circle cx="496.57557811992694" cy="455.36146605376035" r="10" fill="#334155"/><text x="496.57557811992694" y="459.36146605376035" font-size="11" fill="#fff" font-weight="700" text-anchor="middle" letter-spacing="0" font-family="Inter, 'SF Pro Display', system-ui, sans-serif">3</text><line x1="773.7933138191222" y1="545.9235777009965" x2="954.7823434454547" y2="487.748532463961" stroke="#3b82f6" stroke-width="2.4" marker-end="url(#ab)"/><rect x="792.5878286322884" y="504.83605508247877" width="143.39999999999998" height="22" rx="11" fill="#ffffff" stroke="#e3e7ee" stroke-width="1"/><text x="864.2878286322884" y="520.3360550824788" font-size="11" fill="#475569" font-weight="600" text-anchor="middle" letter-spacing="0" font-family="Inter, 'SF Pro Display', system-ui, sans-serif">save scan + verdict</text><circle cx="789.0257707996865" cy="541.0274308143865" r="10" fill="#3b82f6"/><text x="789.0257707996865" y="545.0274308143865" font-size="11" fill="#fff" font-weight="700" text-anchor="middle" letter-spacing="0" font-family="Inter, 'SF Pro Display', system-ui, sans-serif">4</text><line x1="771.7224125164279" y1="579.3711200969129" x2="957.3934798705909" y2="665.5755442256316" stroke="#334155" stroke-width="2.4" stroke-dasharray="7 5" marker-end="url(#ad)"/><rect x="779.6579461935095" y="610.4733321612723" width="169.79999999999998" height="22" rx="11" fill="#ffffff" stroke="#e3e7ee" stroke-width="1"/><text x="864.5579461935095" y="625.9733321612723" font-size="11" fill="#475569" font-weight="600" text-anchor="middle" letter-spacing="0" font-family="Inter, 'SF Pro Display', system-ui, sans-serif">heavy OCR / LLM (async)</text><circle cx="786.2345560004028" cy="586.108901000187" r="10" fill="#334155"/><text x="786.2345560004028" y="590.108901000187" font-size="11" fill="#fff" font-weight="700" text-anchor="middle" letter-spacing="0" font-family="Inter, 'SF Pro Display', system-ui, sans-serif">5</text><line x1="1056.0" y1="690.0" x2="1160.0" y2="690.0" stroke="#7c3aed" stroke-width="2.4" stroke-dasharray="7 5" marker-end="url(#ap)"/><rect x="1075.9" y="678.0" width="64.19999999999999" height="22" rx="11" fill="#ffffff" stroke="#e3e7ee" stroke-width="1"/><text x="1108.0" y="693.5" font-size="11" fill="#475569" font-weight="600" text-anchor="middle" letter-spacing="0" font-family="Inter, 'SF Pro Display', system-ui, sans-serif">explain</text><path d="M440 488 L440 800 L150 800 L150 490" fill="none" stroke="#10b981" stroke-width="2.4" stroke-dasharray="7 5" marker-end="url(#ag)"/><rect x="177.0" y="788" width="236" height="22" rx="11" fill="#ffffff" stroke="#e3e7ee"/><text x="295.0" y="803" font-size="11" fill="#0f9d63" font-weight="700" text-anchor="middle" letter-spacing="0" font-family="Inter, 'SF Pro Display', system-ui, sans-serif">trust verdict — score · reasons · action</text><rect x="122" y="404" width="56" height="40" rx="6" fill="#fff" stroke="#6366f1" stroke-width="3"/><rect x="129" y="410" width="42" height="28" rx="3" fill="#6366f1" opacity="0.12"/><path d="M113 446 L187 446 L181 455 L119 455 Z" fill="#fff" stroke="#6366f1" stroke-width="3" stroke-linejoin="round"/><text x="150" y="478" font-size="14.5" fill="#0f172a" font-weight="700" text-anchor="middle" letter-spacing="0" font-family="Inter, 'SF Pro Display', system-ui, sans-serif">Client</text><text x="150" y="495" font-size="11.5" fill="#64748b" font-weight="400" text-anchor="middle" letter-spacing="0" font-family="Inter, 'SF Pro Display', system-ui, sans-serif">web · paste / upload / QR</text><rect x="414" y="404" width="52" height="24" rx="6" fill="#fff" stroke="#4f46e5" stroke-width="3"/><rect x="414" y="432" width="52" height="24" rx="6" fill="#fff" stroke="#4f46e5" stroke-width="3"/><circle cx="425" cy="416" r="3" fill="#4f46e5"/><circle cx="425" cy="444" r="3" fill="#4f46e5"/><line x1="436" y1="416" x2="456" y2="416" stroke="#4f46e5" stroke-width="2.5" stroke-linecap="round"/><line x1="436" y1="444" x2="456" y2="444" stroke="#4f46e5" stroke-width="2.5" stroke-linecap="round"/><text x="440" y="478" font-size="14.5" fill="#0f172a" font-weight="700" text-anchor="middle" letter-spacing="0" font-family="Inter, 'SF Pro Display', system-ui, sans-serif">FastAPI</text><text x="440" y="495" font-size="11.5" fill="#64748b" font-weight="400" text-anchor="middle" letter-spacing="0" font-family="Inter, 'SF Pro Display', system-ui, sans-serif">routers + services (DI)</text><rect x="694" y="270" width="52" height="15" rx="5" fill="#fff" stroke="#ef4444" stroke-width="2.6"/><circle cx="703" cy="277" r="2.4" fill="#ef4444"/><rect x="694" y="288" width="52" height="15" rx="5" fill="#fff" stroke="#ef4444" stroke-width="2.6"/><circle cx="703" cy="295" r="2.4" fill="#ef4444"/><rect x="694" y="306" width="52" height="15" rx="5" fill="#fff" stroke="#ef4444" stroke-width="2.6"/><circle cx="703" cy="313" r="2.4" fill="#ef4444"/><text x="720" y="338" font-size="14.5" fill="#0f172a" font-weight="700" text-anchor="middle" letter-spacing="0" font-family="Inter, 'SF Pro Display', system-ui, sans-serif">Redis</text><text x="720" y="355" font-size="11.5" fill="#64748b" font-weight="400" text-anchor="middle" letter-spacing="0" font-family="Inter, 'SF Pro Display', system-ui, sans-serif">cache + Celery broker</text><rect x="708" y="538" width="44" height="44" rx="9" fill="#fff" stroke="#f59e0b" stroke-width="3"/><rect x="720" y="550" width="20" height="20" rx="4" fill="#f59e0b" opacity="0.16" stroke="#f59e0b" stroke-width="2"/><line x1="722" y1="530" x2="722" y2="538" stroke="#f59e0b" stroke-width="2.5" stroke-linecap="round"/><line x1="722" y1="582" x2="722" y2="590" stroke="#f59e0b" stroke-width="2.5" stroke-linecap="round"/><line x1="700" y1="552" x2="708" y2="552" stroke="#f59e0b" stroke-width="2.5" stroke-linecap="round"/><line x1="752" y1="552" x2="760" y2="552" stroke="#f59e0b" stroke-width="2.5" stroke-linecap="round"/><line x1="730" y1="530" x2="730" y2="538" stroke="#f59e0b" stroke-width="2.5" stroke-linecap="round"/><line x1="730" y1="582" x2="730" y2="590" stroke="#f59e0b" stroke-width="2.5" stroke-linecap="round"/><line x1="700" y1="560" x2="708" y2="560" stroke="#f59e0b" stroke-width="2.5" stroke-linecap="round"/><line x1="752" y1="560" x2="760" y2="560" stroke="#f59e0b" stroke-width="2.5" stroke-linecap="round"/><line x1="738" y1="530" x2="738" y2="538" stroke="#f59e0b" stroke-width="2.5" stroke-linecap="round"/><line x1="738" y1="582" x2="738" y2="590" stroke="#f59e0b" stroke-width="2.5" stroke-linecap="round"/><line x1="700" y1="568" x2="708" y2="568" stroke="#f59e0b" stroke-width="2.5" stroke-linecap="round"/><line x1="752" y1="568" x2="760" y2="568" stroke="#f59e0b" stroke-width="2.5" stroke-linecap="round"/><text x="730" y="608" font-size="14.5" fill="#0f172a" font-weight="700" text-anchor="middle" letter-spacing="0" font-family="Inter, 'SF Pro Display', system-ui, sans-serif">Detection ensemble</text><text x="730" y="625" font-size="11.5" fill="#64748b" font-weight="400" text-anchor="middle" letter-spacing="0" font-family="Inter, 'SF Pro Display', system-ui, sans-serif">text · URL · UPI · OCR</text><path d="M984 450 L984 488 A26 9 0 0 0 1036 488 L1036 450" fill="#fff" stroke="#3b82f6" stroke-width="3" stroke-linejoin="round"/><ellipse cx="1010" cy="450" rx="26" ry="9" fill="#3b82f6" opacity="0.14" stroke="#3b82f6" stroke-width="3"/><path d="M984 468 A26 9 0 0 0 1036 468" fill="none" stroke="#3b82f6" stroke-width="2" opacity="0.55"/><text x="1010" y="518" font-size="14.5" fill="#0f172a" font-weight="700" text-anchor="middle" letter-spacing="0" font-family="Inter, 'SF Pro Display', system-ui, sans-serif">PostgreSQL</text><text x="1010" y="535" font-size="11.5" fill="#64748b" font-weight="400" text-anchor="middle" letter-spacing="0" font-family="Inter, 'SF Pro Display', system-ui, sans-serif">scans · predictions</text><circle cx="1010" cy="690" r="16" fill="#fff" stroke="#16a34a" stroke-width="3"/><circle cx="1010" cy="690" r="6" fill="#16a34a" opacity="0.18" stroke="#16a34a" stroke-width="2"/><g transform="rotate(0 1010 690)"><rect x="1006.5" y="664" width="7" height="9" rx="2" fill="#fff" stroke="#16a34a" stroke-width="2.4"/></g><g transform="rotate(45 1010 690)"><rect x="1006.5" y="664" width="7" height="9" rx="2" fill="#fff" stroke="#16a34a" stroke-width="2.4"/></g><g transform="rotate(90 1010 690)"><rect x="1006.5" y="664" width="7" height="9" rx="2" fill="#fff" stroke="#16a34a" stroke-width="2.4"/></g><g transform="rotate(135 1010 690)"><rect x="1006.5" y="664" width="7" height="9" rx="2" fill="#fff" stroke="#16a34a" stroke-width="2.4"/></g><g transform="rotate(180 1010 690)"><rect x="1006.5" y="664" width="7" height="9" rx="2" fill="#fff" stroke="#16a34a" stroke-width="2.4"/></g><g transform="rotate(225 1010 690)"><rect x="1006.5" y="664" width="7" height="9" rx="2" fill="#fff" stroke="#16a34a" stroke-width="2.4"/></g><g transform="rotate(270 1010 690)"><rect x="1006.5" y="664" width="7" height="9" rx="2" fill="#fff" stroke="#16a34a" stroke-width="2.4"/></g><g transform="rotate(315 1010 690)"><rect x="1006.5" y="664" width="7" height="9" rx="2" fill="#fff" stroke="#16a34a" stroke-width="2.4"/></g><text x="1010" y="738" font-size="14.5" fill="#0f172a" font-weight="700" text-anchor="middle" letter-spacing="0" font-family="Inter, 'SF Pro Display', system-ui, sans-serif">Celery worker</text><text x="1010" y="755" font-size="11.5" fill="#64748b" font-weight="400" text-anchor="middle" letter-spacing="0" font-family="Inter, 'SF Pro Display', system-ui, sans-serif">async OCR / LLM jobs</text><rect x="1152" y="644" width="156" height="118" rx="16" fill="#faf7ff" stroke="#c9b6f0" stroke-width="1.6" stroke-dasharray="6 5"/><text x="1300" y="658" font-size="10" fill="#a78bda" font-weight="700" text-anchor="end" letter-spacing="0" font-family="Inter, 'SF Pro Display', system-ui, sans-serif">external</text><path d="M1226 670 C1230 688 1230 688 1248 692 C1230 696 1230 696 1226 714 C1222 696 1222 696 1204 692 C1222 688 1222 688 1226 670 Z" fill="#7c3aed"/><path d="M1247 665 C1248.5 672.5 1248.5 672.5 1256 674 C1248.5 675.5 1248.5 675.5 1247 683 C1245.5 675.5 1245.5 675.5 1238 674 C1245.5 672.5 1245.5 672.5 1247 665 Z" fill="#7c3aed"/><text x="1230" y="738" font-size="14.5" fill="#0f172a" font-weight="700" text-anchor="middle" letter-spacing="0" font-family="Inter, 'SF Pro Display', system-ui, sans-serif">Redrob LLM</text><text x="1230" y="755" font-size="11.5" fill="#64748b" font-weight="400" text-anchor="middle" letter-spacing="0" font-family="Inter, 'SF Pro Display', system-ui, sans-serif">human explanation</text><line x1="52" y1="838" x2="86" y2="838" stroke="#334155" stroke-width="2.4" marker-end="url(#ad)"/><text x="94" y="842" font-size="11.5" fill="#64748b" font-weight="400" text-anchor="start" letter-spacing="0" font-family="Inter, 'SF Pro Display', system-ui, sans-serif">sync call</text><line x1="182" y1="838" x2="216" y2="838" stroke="#334155" stroke-width="2.4" stroke-dasharray="7 5" marker-end="url(#ad)"/><text x="224" y="842" font-size="11.5" fill="#64748b" font-weight="400" text-anchor="start" letter-spacing="0" font-family="Inter, 'SF Pro Display', system-ui, sans-serif">async / deferred</text><line x1="356" y1="838" x2="390" y2="838" stroke="#10b981" stroke-width="2.4" stroke-dasharray="7 5" marker-end="url(#ag)"/><text x="398" y="842" font-size="11.5" fill="#64748b" font-weight="400" text-anchor="start" letter-spacing="0" font-family="Inter, 'SF Pro Display', system-ui, sans-serif">response path</text></svg>